<?xml version="1.0" standalone="no"?>
<!DOCTYPE svg PUBLIC "-//W3C//DTD SVG 20010904//EN"
 "http://www.w3.org/TR/2001/REC-SVG-20010904/DTD/svg10.dtd">
<svg version="1.0" xmlns="http://www.w3.org/2000/svg"
 width="136.000000pt" height="136.000000pt" viewBox="0 0 136.000000 136.000000"
 preserveAspectRatio="xMidYMid meet">
<metadata>
Created by potrace 1.11, written by Peter Selinger 2001-2013
</metadata>
<g transform="translate(0.000000,136.000000) scale(0.100000,-0.100000)"
fill="#000000" stroke="none">
<path d="M795 1148 c-27 -5 -156 -9 -285 -11 l-235 -2 -59 -30 c-72 -36 -129
-99 -156 -173 -20 -52 -21 -72 -18 -316 3 -255 4 -262 27 -299 36 -59 90 -89
159 -91 l57 -1 3 33 c2 22 -1 32 -10 32 -28 0 -52 61 -52 135 l-1 70 88 2 87
2 0 -230 0 -229 183 2 182 3 0 123 0 124 95 0 95 0 2 -119 c1 -65 2 -121 2
-125 1 -5 82 -8 181 -8 l180 0 0 365 c-1 270 -4 376 -14 407 -71 232 -285 373
-511 336z"/>
</g>
</svg>
